<svg width="32" height="32" viewBox="0 0 32 32" xmlns="http://www.w3.org/2000/svg"><title>20E2B905-7E6D-4CE4-B488-71FE5ECE5969</title><path d="M25 15.5a9.5 9.5 0 1 1-19 0 9.5 9.5 0 0 1 19 0zm-1.475 0a8.025 8.025 0 1 0-16.05 0 8.025 8.025 0 0 0 16.05 0zm-7.207 1.3c-.125.103-.199.178-.228.207v.981a.738.738 0 1 1-1.475.012v-1.08c0-.12.02-.236.056-.35.109-.34.333-.597.704-.906.147-.122.725-.561.84-.653.724-.583 1.048-1.046 1.048-1.608a1.329 1.329 0 0 0-.194-.66c-.263-.438-.77-.706-1.71-.699-.957.007-1.536.294-1.88.758-.2.271-.283.542-.295.683a.738.738 0 1 1-1.47-.13c.034-.387.193-.909.58-1.43.622-.842 1.64-1.346 3.053-1.356 1.45-.01 2.448.516 2.987 1.415.312.52.411 1.037.404 1.445-.003 1.1-.562 1.897-1.6 2.731-.138.112-.703.542-.82.64zm-1.013 2.372a.702.702 0 1 1 0 1.403.702.702 0 0 1 0-1.403z" fill-rule="nonzero" /></svg>