<svg width="32" height="32" viewBox="0 0 32 32" xmlns="http://www.w3.org/2000/svg"><title>7F294FF7-78F7-47C3-87EA-853FF7204258</title><path d="M19.252 16.454c1.506.28 2.957.749 4.309 1.395.918.48 1.525 1.578 1.43 2.575l-.19 1.915c-.105 1-.924 1.927-1.893 2.11a43.508 43.508 0 0 1-13.804.001c-.983-.185-1.798-1.096-1.902-2.11-.083-.806-.139-1.36-.192-1.918-.097-.975.502-2.086 1.389-2.555a17.511 17.511 0 0 1 4.7-1.475l.377-.061.101.625-.625.093-.103-.7.625-.093-.408.483-.112-.094a2.92 2.92 0 0 1-.204-.191c-.362-.374-.598-.824-.638-1.263l-.035-.322a1.366 1.366 0 0 1-.684-1.05l-.188-1.807a1.355 1.355 0 0 1 .414-1.13l-.046-.422c-.133-1.404.035-2.374.986-3.224C13.354 6.45 14.636 6 16 6c1.387 0 2.65.452 3.462 1.252.944.844 1.101 1.805.966 3.218l-.046.41a1.357 1.357 0 0 1 .412 1.132l-.186 1.805c-.04.446-.3.84-.686 1.055l-.04.33c-.033.432-.271.88-.63 1.252a2.876 2.876 0 0 1-.204.19l-.113.096-.409-.482.626.086-.096.7-.626-.087.102-.625.374.061a17.91 17.91 0 0 1 .345.06zm-.62 1.133l-.364-.06a.617.617 0 0 1-.51-.693l.094-.68a.617.617 0 0 1 .211-.386l.11-.094c.23-.195.373-.43.385-.586l.083-.693a.617.617 0 0 1 .37-.495l.202-.085a.085.085 0 0 0 .052-.074l.182-1.767a.092.092 0 0 0-.022-.074c-.004-.005-.179-.14-.179-.14a.618.618 0 0 1-.237-.557l.08-.729c.097-1.002-.003-1.61-.556-2.105-.567-.558-1.486-.887-2.532-.887-1.026 0-1.963.33-2.511.87-.567.507-.672 1.117-.578 2.115l.08.74a.618.618 0 0 1-.239.558l-.166.127c-.03.033-.036.053-.033.08l.183 1.764a.096.096 0 0 0 .054.079l.203.087a.617.617 0 0 1 .37.5l.073.673c.015.162.157.399.392.598l.108.093a.617.617 0 0 1 .211.38l.1.682a.617.617 0 0 1-.509.699l-.366.06c-1.48.244-2.908.693-4.224 1.321-.4.211-.725.813-.68 1.265.052.543.106 1.079.187 1.861.046.451.44.891.84.967 4.293.69 8.723.69 13.02-.002.384-.072.786-.527.832-.964l.183-1.859c.044-.463-.278-1.05-.708-1.28a15.691 15.691 0 0 0-4.192-1.309z" fill-rule="nonzero" /></svg>